<mxfile host="Electron" agent="Mozilla/5.0 (Macintosh; Intel Mac OS X 10_15_7) AppleWebKit/537.36 (KHTML, like Gecko) draw.io/25.0.2 Chrome/128.0.6613.186 Electron/32.2.5 Safari/537.36" version="25.0.2">
  <diagram id="nq7br95IvUTvTQ_0yzYJ" name="Page-1">
    <mxGraphModel dx="5526" dy="-1123" grid="1" gridSize="10" guides="1" tooltips="1" connect="1" arrows="1" fold="1" page="0" pageScale="1" pageWidth="2339" pageHeight="3300" background="none" math="0" shadow="0">
      <root>
        <mxCell id="0" />
        <mxCell id="1" parent="0" />
        <mxCell id="node17" value="&lt;p style=&quot;margin:0px;margin-top:4px;text-align:center;&quot;&gt;&lt;b&gt;Admin&lt;/b&gt;&lt;/p&gt;&lt;hr size=&quot;1&quot;/&gt;&lt;p style=&quot;margin:0 0 0 4px;line-height:1.6;&quot;&gt;+ Admin(): &lt;/p&gt;&lt;hr size=&quot;1&quot;/&gt;&lt;p style=&quot;margin:0 0 0 4px;line-height:1.6;&quot;&gt;+ createUser(User): void&lt;br/&gt;+ manageCourses(): void&lt;br/&gt;+ generateReports(): void&lt;/p&gt;" style="verticalAlign=top;align=left;overflow=fill;fontSize=14;fontFamily=Helvetica;html=1;rounded=0;shadow=0;comic=0;labelBackgroundColor=none;strokeWidth=1;" parent="1" vertex="1">
          <mxGeometry x="-1450" y="4360" width="193" height="147" as="geometry" />
        </mxCell>
        <mxCell id="node22" value="&lt;p style=&quot;margin:0px;margin-top:4px;text-align:center;&quot;&gt;&lt;b&gt;AdminService&lt;/b&gt;&lt;/p&gt;&lt;hr size=&quot;1&quot;/&gt;&lt;p style=&quot;margin:0 0 0 4px;line-height:1.6;&quot;&gt;+ AdminService(CourseService, NotificationService, AssessmentService): &lt;/p&gt;&lt;hr size=&quot;1&quot;/&gt;&lt;p style=&quot;margin:0 0 0 4px;line-height:1.6;&quot;&gt;+ updateCourse(Long, String, String, String, int): Course&lt;br/&gt;+ deleteCourse(Long, String): boolean&lt;br/&gt;+ createCourse(Long, String, String, int): Course&lt;/p&gt;" style="verticalAlign=top;align=left;overflow=fill;fontSize=14;fontFamily=Helvetica;html=1;rounded=0;shadow=0;comic=0;labelBackgroundColor=none;strokeWidth=1;" parent="1" vertex="1">
          <mxGeometry x="-1790" y="6794.5" width="438" height="147" as="geometry" />
        </mxCell>
        <mxCell id="node20" value="&lt;p style=&quot;margin:0px;margin-top:4px;text-align:center;&quot;&gt;&lt;b&gt;AssessmentController&lt;/b&gt;&lt;/p&gt;&lt;hr size=&quot;1&quot;/&gt;&lt;p style=&quot;margin:0 0 0 4px;line-height:1.6;&quot;&gt;+ AssessmentController(): &lt;/p&gt;&lt;hr size=&quot;1&quot;/&gt;&lt;p style=&quot;margin:0 0 0 4px;line-height:1.6;&quot;&gt;+ getAllQuestions(Long): ResponseEntity&amp;lt;?&amp;gt;&lt;br/&gt;+ GetAllquizzes(): List&amp;lt;Quiz&amp;gt;&lt;br/&gt;+ createAssignment(Long, Map&amp;lt;String, Object&amp;gt;): ResponseEntity&amp;lt;?&amp;gt;&lt;br/&gt;+ submitQuizAnswers(Long, Map&amp;lt;String, Object&amp;gt;): ResponseEntity&amp;lt;?&amp;gt;&lt;br/&gt;+ getQuizById(Long): ResponseEntity&amp;lt;Quiz&amp;gt;&lt;br/&gt;+ getAssignmentById(Long): ResponseEntity&amp;lt;Assignment&amp;gt;&lt;br/&gt;+ addQuestions(Long, List&amp;lt;Question&amp;gt;): ResponseEntity&amp;lt;String&amp;gt;&lt;br/&gt;+ GetAllAssignments(): List&amp;lt;Assignment&amp;gt;&lt;br/&gt;+ createQuiz(Long, Map&amp;lt;String, Object&amp;gt;): ResponseEntity&amp;lt;?&amp;gt;&lt;br/&gt;+ submitAssignment(Long, Map&amp;lt;String, Object&amp;gt;): ResponseEntity&amp;lt;?&amp;gt;&lt;br/&gt;+ gradeAssignment(Long, Map&amp;lt;String, Object&amp;gt;): ResponseEntity&amp;lt;String&amp;gt;&lt;/p&gt;" style="verticalAlign=top;align=left;overflow=fill;fontSize=14;fontFamily=Helvetica;html=1;rounded=0;shadow=0;comic=0;labelBackgroundColor=none;strokeWidth=1;" parent="1" vertex="1">
          <mxGeometry x="-1157" y="5704" width="487" height="328" as="geometry" />
        </mxCell>
        <mxCell id="node14" value="&lt;p style=&quot;margin:0px;margin-top:4px;text-align:center;&quot;&gt;&lt;b&gt;AssessmentService&lt;/b&gt;&lt;/p&gt;&lt;hr size=&quot;1&quot;/&gt;&lt;p style=&quot;margin:0 0 0 4px;line-height:1.6;&quot;&gt;+ AssessmentService(): &lt;/p&gt;&lt;hr size=&quot;1&quot;/&gt;&lt;p style=&quot;margin:0 0 0 4px;line-height:1.6;&quot;&gt;+ GetAllAssignments(): List&amp;lt;Assignment&amp;gt;&lt;br/&gt;+ correctAnswersCount(Long, Long): int&lt;br/&gt;+ addQuestions(List&amp;lt;Question&amp;gt;): void&lt;br/&gt;+ GetAllquizzes(): List&amp;lt;Quiz&amp;gt;&lt;br/&gt;+ findAssignmentById(Long): Assignment&lt;br/&gt;+ submitAssignment(Long, String, Long): void&lt;br/&gt;+ trackStudentQuizPerformance(Long): List&amp;lt;Grading&amp;gt;&lt;br/&gt;+ createAssignment(String, String): Assignment&lt;br/&gt;+ createQuiz(String, int, int): Quiz&lt;br/&gt;+ findQuizById(Long): Quiz&lt;br/&gt;+ SubmitQuiz(Long, Map&amp;lt;String, String&amp;gt;): void&lt;br/&gt;+ gradeAssignment(Long, String, String, String): void&lt;br/&gt;+ trackStudentPerformance(Long): List&amp;lt;Grading&amp;gt;&lt;br/&gt;+ GetQuestions(): List&amp;lt;Question&amp;gt;&lt;br/&gt;+ trackStudentAssignments(Long): List&amp;lt;Grading&amp;gt;&lt;/p&gt;" style="verticalAlign=top;align=left;overflow=fill;fontSize=14;fontFamily=Helvetica;html=1;rounded=0;shadow=0;comic=0;labelBackgroundColor=none;strokeWidth=1;" parent="1" vertex="1">
          <mxGeometry x="-1598" y="5656" width="368" height="424" as="geometry" />
        </mxCell>
        <mxCell id="node13" value="&lt;p style=&quot;margin:0px;margin-top:4px;text-align:center;&quot;&gt;&lt;b&gt;Assignment&lt;/b&gt;&lt;/p&gt;&lt;hr size=&quot;1&quot;/&gt;&lt;p style=&quot;margin:0 0 0 4px;line-height:1.6;&quot;&gt;+ Assignment(Long, String, String): &lt;/p&gt;&lt;hr size=&quot;1&quot;/&gt;&lt;p style=&quot;margin:0 0 0 4px;line-height:1.6;&quot;&gt;- id: Long&lt;br/&gt;- title: String&lt;br/&gt;- description: String&lt;br/&gt;- submittedFiles: List&amp;lt;Entry&amp;lt;Long, String&amp;gt;&amp;gt;&lt;br/&gt;- feedback: String&lt;br/&gt;- marks: int&lt;/p&gt;&lt;hr size=&quot;1&quot;/&gt;&lt;p style=&quot;margin:0 0 0 4px;line-height:1.6;&quot;&gt;+ submitFile(Long, String): void&lt;/p&gt;&lt;hr size=&quot;1&quot;/&gt;&lt;p style=&quot;margin:0 0 0 4px;line-height:1.6;&quot;&gt; description: String&lt;br/&gt; submittedFiles: List&amp;lt;Entry&amp;lt;Long, String&amp;gt;&amp;gt;&lt;br/&gt; marks: int&lt;br/&gt; title: String&lt;br/&gt; id: Long&lt;br/&gt; feedback: String&lt;/p&gt;" style="verticalAlign=top;align=left;overflow=fill;fontSize=14;fontFamily=Helvetica;html=1;rounded=0;shadow=0;comic=0;labelBackgroundColor=none;strokeWidth=1;" parent="1" vertex="1">
          <mxGeometry x="-2027" y="5179" width="307" height="378" as="geometry" />
        </mxCell>
        <mxCell id="node21" value="&lt;p style=&quot;margin:0px;margin-top:4px;text-align:center;&quot;&gt;&lt;b&gt;Course&lt;/b&gt;&lt;/p&gt;&lt;hr size=&quot;1&quot;/&gt;&lt;p style=&quot;margin:0 0 0 4px;line-height:1.6;&quot;&gt;+ Course(Long, String, String, String, int): &lt;/p&gt;&lt;hr size=&quot;1&quot;/&gt;&lt;p style=&quot;margin:0 0 0 4px;line-height:1.6;&quot;&gt;- lessons: List&amp;lt;Lesson&amp;gt;&lt;br/&gt;- enrolledStudents: List&amp;lt;Long&amp;gt;&lt;br/&gt;- mediaFiles: List&amp;lt;String&amp;gt;&lt;br/&gt;- duration: int&lt;br/&gt;- description: String&lt;br/&gt;- id: String&lt;br/&gt;- instructor: Instructor&lt;br/&gt;- title: String&lt;/p&gt;&lt;hr size=&quot;1&quot;/&gt;&lt;p style=&quot;margin:0 0 0 4px;line-height:1.6;&quot;&gt; description: String&lt;br/&gt; instructor: Instructor&lt;br/&gt; enrolledStudents: List&amp;lt;Long&amp;gt;&lt;br/&gt; title: String&lt;br/&gt; mediaFiles: List&amp;lt;String&amp;gt;&lt;br/&gt; duration: int&lt;br/&gt; id: String&lt;br/&gt; lessons: List&amp;lt;Lesson&amp;gt;&lt;/p&gt;" style="verticalAlign=top;align=left;overflow=fill;fontSize=14;fontFamily=Helvetica;html=1;rounded=0;shadow=0;comic=0;labelBackgroundColor=none;strokeWidth=1;" parent="1" vertex="1">
          <mxGeometry x="-2399" y="4704" width="290" height="449" as="geometry" />
        </mxCell>
        <mxCell id="node9" value="&lt;p style=&quot;margin:0px;margin-top:4px;text-align:center;&quot;&gt;&lt;b&gt;CourseController&lt;/b&gt;&lt;/p&gt;&lt;hr size=&quot;1&quot;/&gt;&lt;p style=&quot;margin:0 0 0 4px;line-height:1.6;&quot;&gt;+ CourseController(CourseService): &lt;/p&gt;&lt;hr size=&quot;1&quot;/&gt;&lt;p style=&quot;margin:0 0 0 4px;line-height:1.6;&quot;&gt;+ deleteCourse(String, Long): ResponseEntity&amp;lt;String&amp;gt;&lt;br/&gt;+ addLesson(String, String, String): Lesson&lt;br/&gt;+ addMediaFile(String, String): String&lt;br/&gt;+ getCourseById(String): Course&lt;br/&gt;+ createCourse(Long, String, String, int): ResponseEntity&amp;lt;?&amp;gt;&lt;br/&gt;+ getEnrolledStudents(String): List&amp;lt;Long&amp;gt;&lt;br/&gt;+ updateCourse(Long, String, String, String, int): ResponseEntity&amp;lt;?&amp;gt;&lt;br/&gt;+ getLessonAttendance(String, String): Map&amp;lt;String, Boolean&amp;gt;&lt;/p&gt;&lt;hr size=&quot;1&quot;/&gt;&lt;p style=&quot;margin:0 0 0 4px;line-height:1.6;&quot;&gt; allCourses: List&amp;lt;Course&amp;gt;&lt;/p&gt;" style="verticalAlign=top;align=left;overflow=fill;fontSize=14;fontFamily=Helvetica;html=1;rounded=0;shadow=0;comic=0;labelBackgroundColor=none;strokeWidth=1;" parent="1" vertex="1">
          <mxGeometry x="-2040" y="6360" width="454" height="281" as="geometry" />
        </mxCell>
        <mxCell id="node11" value="&lt;p style=&quot;margin:0px;margin-top:4px;text-align:center;&quot;&gt;&lt;b&gt;CourseService&lt;/b&gt;&lt;/p&gt;&lt;hr size=&quot;1&quot;/&gt;&lt;p style=&quot;margin:0 0 0 4px;line-height:1.6;&quot;&gt;+ CourseService(NotificationService): &lt;/p&gt;&lt;hr size=&quot;1&quot;/&gt;&lt;p style=&quot;margin:0 0 0 4px;line-height:1.6;&quot;&gt;+ addMediaFile(String, String): boolean&lt;br/&gt;+ generateOtp(String, String): String&lt;br/&gt;+ deleteCourse(Long, String): boolean&lt;br/&gt;- generateId(): String&lt;br/&gt;+ markAttendance(String, String, String, boolean): boolean&lt;br/&gt;+ findCourseById(String): Course&lt;br/&gt;+ createCourse(Long, String, String, int): Course&lt;br/&gt;+ getLessonAttendance(String, String): Map&amp;lt;String, Boolean&amp;gt;&lt;br/&gt;+ getEnrolledStudents(String): List&amp;lt;Long&amp;gt;&lt;br/&gt;+ addLesson(String, String, String): Lesson&lt;br/&gt;+ updateCourse(Long, String, String, String, int): Course&lt;/p&gt;&lt;hr size=&quot;1&quot;/&gt;&lt;p style=&quot;margin:0 0 0 4px;line-height:1.6;&quot;&gt; allCourses: List&amp;lt;Course&amp;gt;&lt;/p&gt;" style="verticalAlign=top;align=left;overflow=fill;fontSize=14;fontFamily=Helvetica;html=1;rounded=0;shadow=0;comic=0;labelBackgroundColor=none;strokeWidth=1;" parent="1" vertex="1">
          <mxGeometry x="-2222" y="5692" width="416" height="353" as="geometry" />
        </mxCell>
        <mxCell id="node7" value="&lt;p style=&quot;margin:0px;margin-top:4px;text-align:center;&quot;&gt;&lt;b&gt;Grading&lt;/b&gt;&lt;/p&gt;&lt;hr size=&quot;1&quot;/&gt;&lt;p style=&quot;margin:0 0 0 4px;line-height:1.6;&quot;&gt;+ Grading(Long, Long, String, String, String): &lt;br/&gt;+ Grading(Long, Long, String): &lt;/p&gt;&lt;hr size=&quot;1&quot;/&gt;&lt;p style=&quot;margin:0 0 0 4px;line-height:1.6;&quot;&gt;- type: String&lt;br/&gt;- marks: String&lt;br/&gt;- id: Long&lt;br/&gt;- studentId: Long&lt;br/&gt;- feedback: String&lt;/p&gt;&lt;hr size=&quot;1&quot;/&gt;&lt;p style=&quot;margin:0 0 0 4px;line-height:1.6;&quot;&gt; type: String&lt;br/&gt; studentId: Long&lt;br/&gt; id: Long&lt;br/&gt; feedback: String&lt;br/&gt; marks: String&lt;/p&gt;" style="verticalAlign=top;align=left;overflow=fill;fontSize=14;fontFamily=Helvetica;html=1;rounded=0;shadow=0;comic=0;labelBackgroundColor=none;strokeWidth=1;" parent="1" vertex="1">
          <mxGeometry x="-1509" y="4764" width="310" height="329" as="geometry" />
        </mxCell>
        <mxCell id="node16" value="&lt;p style=&quot;margin:0px;margin-top:4px;text-align:center;&quot;&gt;&lt;b&gt;Instructor&lt;/b&gt;&lt;/p&gt;&lt;hr size=&quot;1&quot;/&gt;&lt;p style=&quot;margin:0 0 0 4px;line-height:1.6;&quot;&gt;+ Instructor(): &lt;/p&gt;&lt;hr size=&quot;1&quot;/&gt;&lt;p style=&quot;margin:0 0 0 4px;line-height:1.6;&quot;&gt;+ gradeAssignments(): void&lt;br/&gt;+ createCourse(String): void&lt;br/&gt;+ addContent(String): void&lt;br/&gt;+ removeStudentFromCourse(String): void&lt;/p&gt;" style="verticalAlign=top;align=left;overflow=fill;fontSize=14;fontFamily=Helvetica;html=1;rounded=0;shadow=0;comic=0;labelBackgroundColor=none;strokeWidth=1;" parent="1" vertex="1">
          <mxGeometry x="-2402" y="4348" width="297" height="160" as="geometry" />
        </mxCell>
        <mxCell id="node15" value="&lt;p style=&quot;margin:0px;margin-top:4px;text-align:center;&quot;&gt;&lt;b&gt;InstructorService&lt;/b&gt;&lt;/p&gt;&lt;hr size=&quot;1&quot;/&gt;&lt;p style=&quot;margin:0 0 0 4px;line-height:1.6;&quot;&gt;+ InstructorService(CourseService, NotificationService, AssessmentService): &lt;/p&gt;&lt;hr size=&quot;1&quot;/&gt;&lt;p style=&quot;margin:0 0 0 4px;line-height:1.6;&quot;&gt;+ correctAnswersCount(Long, Long): int&lt;br/&gt;+ gradeAssignment(Long, Long, String, String, String): void&lt;br/&gt;+ trackStudentPerformance(Long, Long): List&amp;lt;Grading&amp;gt;&lt;br/&gt;+ createQuiz(Long, String, int, int): Quiz&lt;br/&gt;+ trackStudentAssignments(Long, Long): List&amp;lt;Grading&amp;gt;&lt;br/&gt;+ assignInstructorToCourse(Long, String): boolean&lt;br/&gt;+ generateOtpForLesson(Long, String, String): String&lt;br/&gt;+ addQuestions(Long, List&amp;lt;Question&amp;gt;): void&lt;br/&gt;+ GetQuestions(Long): List&amp;lt;Question&amp;gt;&lt;br/&gt;+ createAssignment(Long, String, String): Assignment&lt;br/&gt;+ trackStudentQuizPerformance(Long, Long): List&amp;lt;Grading&amp;gt;&lt;/p&gt;" style="verticalAlign=top;align=left;overflow=fill;fontSize=14;fontFamily=Helvetica;html=1;rounded=0;shadow=0;comic=0;labelBackgroundColor=none;strokeWidth=1;" parent="1" vertex="1">
          <mxGeometry x="-1530" y="7050" width="425" height="328" as="geometry" />
        </mxCell>
        <mxCell id="node6" value="&lt;p style=&quot;margin:0px;margin-top:4px;text-align:center;&quot;&gt;&lt;b&gt;Lesson&lt;/b&gt;&lt;/p&gt;&lt;hr size=&quot;1&quot;/&gt;&lt;p style=&quot;margin:0 0 0 4px;line-height:1.6;&quot;&gt;+ Lesson(String, String, String): &lt;/p&gt;&lt;hr size=&quot;1&quot;/&gt;&lt;p style=&quot;margin:0 0 0 4px;line-height:1.6;&quot;&gt;- otp: String&lt;br/&gt;- title: String&lt;br/&gt;- attendance: Map&amp;lt;String, Boolean&amp;gt;&lt;br/&gt;- id: String&lt;br/&gt;- content: String&lt;/p&gt;&lt;hr size=&quot;1&quot;/&gt;&lt;p style=&quot;margin:0 0 0 4px;line-height:1.6;&quot;&gt;+ markAttendance(String, boolean): void&lt;/p&gt;&lt;hr size=&quot;1&quot;/&gt;&lt;p style=&quot;margin:0 0 0 4px;line-height:1.6;&quot;&gt; otp: String&lt;br/&gt; content: String&lt;br/&gt; title: String&lt;br/&gt; id: String&lt;br/&gt; attendance: Map&amp;lt;String, Boolean&amp;gt;&lt;/p&gt;" style="verticalAlign=top;align=left;overflow=fill;fontSize=14;fontFamily=Helvetica;html=1;rounded=0;shadow=0;comic=0;labelBackgroundColor=none;strokeWidth=1;" parent="1" vertex="1">
          <mxGeometry x="-2056" y="4263" width="284" height="330" as="geometry" />
        </mxCell>
        <mxCell id="node4" value="&lt;p style=&quot;margin:0px;margin-top:4px;text-align:center;&quot;&gt;&lt;b&gt;Notification&lt;/b&gt;&lt;/p&gt;&lt;hr size=&quot;1&quot;/&gt;&lt;p style=&quot;margin:0 0 0 4px;line-height:1.6;&quot;&gt;+ Notification(String, String): &lt;/p&gt;&lt;hr size=&quot;1&quot;/&gt;&lt;p style=&quot;margin:0 0 0 4px;line-height:1.6;&quot;&gt;- message: String&lt;br/&gt;- id: String&lt;br/&gt;- read: boolean&lt;/p&gt;&lt;hr size=&quot;1&quot;/&gt;&lt;p style=&quot;margin:0 0 0 4px;line-height:1.6;&quot;&gt;+ markAsRead(): void&lt;/p&gt;&lt;hr size=&quot;1&quot;/&gt;&lt;p style=&quot;margin:0 0 0 4px;line-height:1.6;&quot;&gt; id: String&lt;br/&gt; message: String&lt;br/&gt; read: boolean&lt;/p&gt;" style="verticalAlign=top;align=left;overflow=fill;fontSize=14;fontFamily=Helvetica;html=1;rounded=0;shadow=0;comic=0;labelBackgroundColor=none;strokeWidth=1;" parent="1" vertex="1">
          <mxGeometry x="-1780" y="3510" width="214" height="234" as="geometry" />
        </mxCell>
        <mxCell id="node8" value="&lt;p style=&quot;margin:0px;margin-top:4px;text-align:center;&quot;&gt;&lt;b&gt;NotificationController&lt;/b&gt;&lt;/p&gt;&lt;hr size=&quot;1&quot;/&gt;&lt;p style=&quot;margin:0 0 0 4px;line-height:1.6;&quot;&gt;+ NotificationController(NotificationService): &lt;/p&gt;&lt;hr size=&quot;1&quot;/&gt;&lt;p style=&quot;margin:0 0 0 4px;line-height:1.6;&quot;&gt;+ getNotifications(Long, boolean): List&amp;lt;Notification&amp;gt;&lt;br/&gt;+ markNotificationAsRead(Long, String): String&lt;/p&gt;" style="verticalAlign=top;align=left;overflow=fill;fontSize=14;fontFamily=Helvetica;html=1;rounded=0;shadow=0;comic=0;labelBackgroundColor=none;strokeWidth=1;" parent="1" vertex="1">
          <mxGeometry x="-2633" y="5812" width="358" height="121" as="geometry" />
        </mxCell>
        <mxCell id="node1" value="&lt;p style=&quot;margin:0px;margin-top:4px;text-align:center;&quot;&gt;&lt;b&gt;NotificationService&lt;/b&gt;&lt;/p&gt;&lt;hr size=&quot;1&quot;/&gt;&lt;p style=&quot;margin:0 0 0 4px;line-height:1.6;&quot;&gt;+ NotificationService(UserService): &lt;/p&gt;&lt;hr size=&quot;1&quot;/&gt;&lt;p style=&quot;margin:0 0 0 4px;line-height:1.6;&quot;&gt;- generateId(): String&lt;br/&gt;+ getNotifications(Long, boolean): List&amp;lt;Notification&amp;gt;&lt;br/&gt;+ markNotificationAsRead(Long, String): void&lt;br/&gt;+ notifyUser(Long, String): void&lt;/p&gt;" style="verticalAlign=top;align=left;overflow=fill;fontSize=14;fontFamily=Helvetica;html=1;rounded=0;shadow=0;comic=0;labelBackgroundColor=none;strokeWidth=1;" parent="1" vertex="1">
          <mxGeometry x="-2633" y="5288" width="358" height="160" as="geometry" />
        </mxCell>
        <mxCell id="node2" value="&lt;p style=&quot;margin:0px;margin-top:4px;text-align:center;&quot;&gt;&lt;b&gt;PerformanceController&lt;/b&gt;&lt;/p&gt;&lt;hr size=&quot;1&quot;/&gt;&lt;p style=&quot;margin:0 0 0 4px;line-height:1.6;&quot;&gt;+ PerformanceController(): &lt;/p&gt;&lt;hr size=&quot;1&quot;/&gt;&lt;p style=&quot;margin:0 0 0 4px;line-height:1.6;&quot;&gt;+ trackStudentPerformance(Long, Long): ResponseEntity&amp;lt;?&amp;gt;&lt;br/&gt;+ trackStudentAssignments(Long, Long): ResponseEntity&amp;lt;?&amp;gt;&lt;br/&gt;+ trackStudentQuizPerformance(Long, Long): ResponseEntity&amp;lt;?&amp;gt;&lt;/p&gt;" style="verticalAlign=top;align=left;overflow=fill;fontSize=14;fontFamily=Helvetica;html=1;rounded=0;shadow=0;comic=0;labelBackgroundColor=none;strokeWidth=1;" parent="1" vertex="1">
          <mxGeometry x="-1192" y="6180" width="437" height="147" as="geometry" />
        </mxCell>
        <mxCell id="node0" value="&lt;p style=&quot;margin:0px;margin-top:4px;text-align:center;&quot;&gt;&lt;b&gt;Question&lt;/b&gt;&lt;/p&gt;&lt;hr size=&quot;1&quot;/&gt;&lt;p style=&quot;margin:0 0 0 4px;line-height:1.6;&quot;&gt;+ Question(Long, String, List&amp;lt;String&amp;gt;, String): &lt;/p&gt;&lt;hr size=&quot;1&quot;/&gt;&lt;p style=&quot;margin:0 0 0 4px;line-height:1.6;&quot;&gt;- id: Long&lt;br/&gt;- text: String&lt;br/&gt;- options: List&amp;lt;String&amp;gt;&lt;br/&gt;- correctAnswer: String&lt;/p&gt;&lt;hr size=&quot;1&quot;/&gt;&lt;p style=&quot;margin:0 0 0 4px;line-height:1.6;&quot;&gt; text: String&lt;br/&gt; correctAnswer: String&lt;br/&gt; id: Long&lt;br/&gt; options: List&amp;lt;String&amp;gt;&lt;/p&gt;" style="verticalAlign=top;align=left;overflow=fill;fontSize=14;fontFamily=Helvetica;html=1;rounded=0;shadow=0;comic=0;labelBackgroundColor=none;strokeWidth=1;" parent="1" vertex="1">
          <mxGeometry x="-1693" y="3980" width="318" height="257" as="geometry" />
        </mxCell>
        <mxCell id="node3" value="&lt;p style=&quot;margin:0px;margin-top:4px;text-align:center;&quot;&gt;&lt;b&gt;Quiz&lt;/b&gt;&lt;/p&gt;&lt;hr size=&quot;1&quot;/&gt;&lt;p style=&quot;margin:0 0 0 4px;line-height:1.6;&quot;&gt;+ Quiz(Long, String, int, List&amp;lt;Question&amp;gt;): &lt;/p&gt;&lt;hr size=&quot;1&quot;/&gt;&lt;p style=&quot;margin:0 0 0 4px;line-height:1.6;&quot;&gt;- id: Long&lt;br/&gt;- totalMarks: int&lt;br/&gt;- title: String&lt;br/&gt;- questions: List&amp;lt;Question&amp;gt;&lt;/p&gt;&lt;hr size=&quot;1&quot;/&gt;&lt;p style=&quot;margin:0 0 0 4px;line-height:1.6;&quot;&gt;+ addQuestion(Question): void&lt;/p&gt;&lt;hr size=&quot;1&quot;/&gt;&lt;p style=&quot;margin:0 0 0 4px;line-height:1.6;&quot;&gt; totalMarks: int&lt;br/&gt; title: String&lt;br/&gt; id: Long&lt;br/&gt; questions: List&amp;lt;Question&amp;gt;&lt;/p&gt;" style="verticalAlign=top;align=left;overflow=fill;fontSize=14;fontFamily=Helvetica;html=1;rounded=0;shadow=0;comic=0;labelBackgroundColor=none;strokeWidth=1;" parent="1" vertex="1">
          <mxGeometry x="-1678" y="5227" width="288" height="282" as="geometry" />
        </mxCell>
        <mxCell id="node19" value="&lt;p style=&quot;margin:0px;margin-top:4px;text-align:center;&quot;&gt;&lt;b&gt;Student&lt;/b&gt;&lt;/p&gt;&lt;hr size=&quot;1&quot;/&gt;&lt;p style=&quot;margin:0 0 0 4px;line-height:1.6;&quot;&gt;+ Student(): &lt;/p&gt;&lt;hr size=&quot;1&quot;/&gt;&lt;p style=&quot;margin:0 0 0 4px;line-height:1.6;&quot;&gt;+ enrollInCourse(String): void&lt;br/&gt;+ viewCourseMaterials(): void&lt;br/&gt;+ submitAssignment(String): void&lt;/p&gt;" style="verticalAlign=top;align=left;overflow=fill;fontSize=14;fontFamily=Helvetica;html=1;rounded=0;shadow=0;comic=0;labelBackgroundColor=none;strokeWidth=1;" parent="1" vertex="1">
          <mxGeometry x="-2194" y="4040" width="240" height="147" as="geometry" />
        </mxCell>
        <mxCell id="node18" value="&lt;p style=&quot;margin:0px;margin-top:4px;text-align:center;&quot;&gt;&lt;b&gt;StudentService&lt;/b&gt;&lt;/p&gt;&lt;hr size=&quot;1&quot;/&gt;&lt;p style=&quot;margin:0 0 0 4px;line-height:1.6;&quot;&gt;+ StudentService(CourseService, NotificationService, AssessmentService): &lt;/p&gt;&lt;hr size=&quot;1&quot;/&gt;&lt;p style=&quot;margin:0 0 0 4px;line-height:1.6;&quot;&gt;+ GetAllAssignments(): List&amp;lt;Assignment&amp;gt;&lt;br/&gt;+ markAttendance(Long, String, String, String): boolean&lt;br/&gt;+ enrollInCourse(Long, String): boolean&lt;br/&gt;+ findAssignmentById(Long): Assignment&lt;br/&gt;+ findQuizById(Long): Quiz&lt;br/&gt;+ GetAllquizzes(): List&amp;lt;Quiz&amp;gt;&lt;br/&gt;+ submitAssignment(Long, String, Long): void&lt;br/&gt;+ SubmitQuiz(Long, Long, Map&amp;lt;String, String&amp;gt;): void&lt;/p&gt;" style="verticalAlign=top;align=left;overflow=fill;fontSize=14;fontFamily=Helvetica;html=1;rounded=0;shadow=0;comic=0;labelBackgroundColor=none;strokeWidth=1;" parent="1" vertex="1">
          <mxGeometry x="-1110" y="6740" width="433" height="256" as="geometry" />
        </mxCell>
        <mxCell id="node12" value="&lt;p style=&quot;margin:0px;margin-top:4px;text-align:center;&quot;&gt;&lt;b&gt;User&lt;/b&gt;&lt;/p&gt;&lt;hr size=&quot;1&quot;/&gt;&lt;p style=&quot;margin:0 0 0 4px;line-height:1.6;&quot;&gt;+ User(): &lt;/p&gt;&lt;hr size=&quot;1&quot;/&gt;&lt;p style=&quot;margin:0 0 0 4px;line-height:1.6;&quot;&gt;- password: String&lt;br/&gt;- id: Long&lt;br/&gt;- name: String&lt;br/&gt;- email: String&lt;br/&gt;- role: String&lt;br/&gt;- notifications: List&amp;lt;Notification&amp;gt;&lt;/p&gt;&lt;hr size=&quot;1&quot;/&gt;&lt;p style=&quot;margin:0 0 0 4px;line-height:1.6;&quot;&gt;+ equals(String, String): boolean&lt;br/&gt;+ updateProfile(String, String): void&lt;br/&gt;+ addNotification(Notification): void&lt;br/&gt;+ viewProfile(): void&lt;/p&gt;&lt;hr size=&quot;1&quot;/&gt;&lt;p style=&quot;margin:0 0 0 4px;line-height:1.6;&quot;&gt; name: String&lt;br/&gt; password: String&lt;br/&gt; id: Long&lt;br/&gt; email: String&lt;br/&gt; notifications: List&amp;lt;Notification&amp;gt;&lt;br/&gt; role: String&lt;/p&gt;" style="verticalAlign=top;align=left;overflow=fill;fontSize=14;fontFamily=Helvetica;html=1;rounded=0;shadow=0;comic=0;labelBackgroundColor=none;strokeWidth=1;" parent="1" vertex="1">
          <mxGeometry x="-2201" y="3423" width="255" height="450" as="geometry" />
        </mxCell>
        <mxCell id="node5" value="&lt;p style=&quot;margin:0px;margin-top:4px;text-align:center;&quot;&gt;&lt;b&gt;UserController&lt;/b&gt;&lt;/p&gt;&lt;hr size=&quot;1&quot;/&gt;&lt;p style=&quot;margin:0 0 0 4px;line-height:1.6;&quot;&gt;+ UserController(): &lt;/p&gt;&lt;hr size=&quot;1&quot;/&gt;&lt;p style=&quot;margin:0 0 0 4px;line-height:1.6;&quot;&gt;+ markAttendance(Long, String, String, String): ResponseEntity&amp;lt;String&amp;gt;&lt;br/&gt;+ assignInstructorToCourse(Long, String): ResponseEntity&amp;lt;String&amp;gt;&lt;br/&gt;+ generateOtpForLesson(Long, String, String): ResponseEntity&amp;lt;String&amp;gt;&lt;br/&gt;+ enrollInCourse(Long, String): ResponseEntity&amp;lt;?&amp;gt;&lt;br/&gt;+ getUserById(Long): User&lt;br/&gt;+ registerUser(User): ResponseEntity&amp;lt;User&amp;gt;&lt;br/&gt;+ loginUser(LoginRequest): ResponseEntity&amp;lt;String&amp;gt;&lt;br/&gt;+ deleteUser(Long): void&lt;br/&gt;+ listUsers(String): ResponseEntity&amp;lt;List&amp;lt;User&amp;gt;&amp;gt;&lt;br/&gt;+ updateUser(User, Long): User&lt;/p&gt;&lt;hr size=&quot;1&quot;/&gt;&lt;p style=&quot;margin:0 0 0 4px;line-height:1.6;&quot;&gt; allUsers: List&amp;lt;User&amp;gt;&lt;/p&gt;" style="verticalAlign=top;align=left;overflow=fill;fontSize=14;fontFamily=Helvetica;html=1;rounded=0;shadow=0;comic=0;labelBackgroundColor=none;strokeWidth=1;" parent="1" vertex="1">
          <mxGeometry x="-2311.5" y="6780" width="476" height="329" as="geometry" />
        </mxCell>
        <mxCell id="node10" value="&lt;p style=&quot;margin:0px;margin-top:4px;text-align:center;&quot;&gt;&lt;b&gt;UserService&lt;/b&gt;&lt;/p&gt;&lt;hr size=&quot;1&quot;/&gt;&lt;p style=&quot;margin:0 0 0 4px;line-height:1.6;&quot;&gt;+ UserService(CourseService, NotificationService, AssessmentService): &lt;/p&gt;&lt;hr size=&quot;1&quot;/&gt;&lt;p style=&quot;margin:0 0 0 4px;line-height:1.6;&quot;&gt;+ listUsers(String): ArrayList&amp;lt;User&amp;gt;&lt;br/&gt;+ authenticate(String, String): User&lt;br/&gt;+ deleteUser(Long): void&lt;br/&gt;+ updateUser(User, Long): User&lt;br/&gt;+ getUserById(Long): User&lt;br/&gt;+ getUsersByRole(String): List&amp;lt;User&amp;gt;&lt;br/&gt;+ addUser(User): User&lt;/p&gt;&lt;hr size=&quot;1&quot;/&gt;&lt;p style=&quot;margin:0 0 0 4px;line-height:1.6;&quot;&gt; allUsers: List&amp;lt;User&amp;gt;&lt;/p&gt;" style="verticalAlign=top;align=left;overflow=fill;fontSize=14;fontFamily=Helvetica;html=1;rounded=0;shadow=0;comic=0;labelBackgroundColor=none;strokeWidth=1;" parent="1" vertex="1">
          <mxGeometry x="-1432" y="6350" width="436" height="257" as="geometry" />
        </mxCell>
        <mxCell id="edge4" value="" style="html=1;rounded=1;edgeStyle=orthogonalEdgeStyle;dashed=0;startArrow=none;endArrow=block;endSize=12;strokeColor=#000082;exitX=0.500;exitY=0.000;exitDx=0;exitDy=0;entryX=0.500;entryY=1.000;entryDx=0;entryDy=0;" parent="1" source="node17" target="node12" edge="1">
          <mxGeometry width="50" height="50" relative="1" as="geometry">
            <Array as="points">
              <mxPoint x="-1354" y="3968" />
              <mxPoint x="-2074" y="3968" />
            </Array>
          </mxGeometry>
        </mxCell>
        <mxCell id="edge1" value="" style="html=1;rounded=1;edgeStyle=orthogonalEdgeStyle;dashed=0;startArrow=none;endArrow=block;endSize=12;strokeColor=#000082;exitX=0.500;exitY=0.000;exitDx=0;exitDy=0;entryX=0.500;entryY=1.000;entryDx=0;entryDy=0;" parent="1" source="node22" target="node10" edge="1">
          <mxGeometry width="50" height="50" relative="1" as="geometry">
            <Array as="points">
              <mxPoint x="-1594" y="6708" />
              <mxPoint x="-1214" y="6708" />
            </Array>
          </mxGeometry>
        </mxCell>
        <mxCell id="edge8" value="" style="html=1;rounded=1;edgeStyle=orthogonalEdgeStyle;dashed=0;startArrow=diamondThinstartSize=12;endArrow=openThin;endSize=12;strokeColor=#595959;exitX=0.500;exitY=0.000;exitDx=0;exitDy=0;entryX=0.500;entryY=1.000;entryDx=0;entryDy=0;" parent="1" source="node14" target="node13" edge="1">
          <mxGeometry width="50" height="50" relative="1" as="geometry">
            <Array as="points">
              <mxPoint x="-1414" y="5588" />
              <mxPoint x="-1874" y="5588" />
            </Array>
          </mxGeometry>
        </mxCell>
        <mxCell id="label48" value="1" style="edgeLabel;resizable=0;html=1;align=left;verticalAlign=top;strokeColor=default;" parent="edge8" vertex="1" connectable="0">
          <mxGeometry x="-1466" y="5570" as="geometry" />
        </mxCell>
        <mxCell id="label52" value="*" style="edgeLabel;resizable=0;html=1;align=left;verticalAlign=top;strokeColor=default;" parent="edge8" vertex="1" connectable="0">
          <mxGeometry x="-1787" y="5570" as="geometry" />
        </mxCell>
        <mxCell id="label53" value="assignments" style="edgeLabel;resizable=0;html=1;align=left;verticalAlign=top;strokeColor=default;" parent="edge8" vertex="1" connectable="0">
          <mxGeometry x="-1874" y="5563" as="geometry" />
        </mxCell>
        <mxCell id="edge9" value="" style="html=1;rounded=1;edgeStyle=orthogonalEdgeStyle;dashed=0;startArrow=diamondThinstartSize=12;endArrow=openThin;endSize=12;strokeColor=#595959;exitX=0.500;exitY=0.000;exitDx=0;exitDy=0;entryX=0.500;entryY=1.000;entryDx=0;entryDy=0;" parent="1" source="node14" target="node7" edge="1">
          <mxGeometry width="50" height="50" relative="1" as="geometry">
            <Array as="points">
              <mxPoint x="-1414" y="5588" />
              <mxPoint x="-1354" y="5588" />
            </Array>
          </mxGeometry>
        </mxCell>
        <mxCell id="label54" value="1" style="edgeLabel;resizable=0;html=1;align=left;verticalAlign=top;strokeColor=default;" parent="edge9" vertex="1" connectable="0">
          <mxGeometry x="-1390" y="5570" as="geometry" />
        </mxCell>
        <mxCell id="label58" value="*" style="edgeLabel;resizable=0;html=1;align=left;verticalAlign=top;strokeColor=default;" parent="edge9" vertex="1" connectable="0">
          <mxGeometry x="-1364" y="5098" as="geometry" />
        </mxCell>
        <mxCell id="label59" value="gradings" style="edgeLabel;resizable=0;html=1;align=left;verticalAlign=top;strokeColor=default;" parent="edge9" vertex="1" connectable="0">
          <mxGeometry x="-1354" y="5098" as="geometry" />
        </mxCell>
        <mxCell id="edge10" value="" style="html=1;rounded=1;edgeStyle=orthogonalEdgeStyle;dashed=0;startArrow=diamondThinstartSize=12;endArrow=openThin;endSize=12;strokeColor=#595959;exitX=0.500;exitY=0.000;exitDx=0;exitDy=0;entryX=0.500;entryY=1.000;entryDx=0;entryDy=0;" parent="1" source="node14" target="node0" edge="1">
          <mxGeometry width="50" height="50" relative="1" as="geometry">
            <Array as="points">
              <mxPoint x="-1414" y="5588" />
              <mxPoint x="-2054" y="5588" />
              <mxPoint x="-2054" y="5168" />
              <mxPoint x="-1534" y="5168" />
            </Array>
          </mxGeometry>
        </mxCell>
        <mxCell id="label60" value="1" style="edgeLabel;resizable=0;html=1;align=left;verticalAlign=top;strokeColor=default;" parent="edge10" vertex="1" connectable="0">
          <mxGeometry x="-1527" y="5570" as="geometry" />
        </mxCell>
        <mxCell id="label64" value="*" style="edgeLabel;resizable=0;html=1;align=left;verticalAlign=top;strokeColor=default;" parent="edge10" vertex="1" connectable="0">
          <mxGeometry x="-1544" y="4242" as="geometry" />
        </mxCell>
        <mxCell id="label65" value="Questions" style="edgeLabel;resizable=0;html=1;align=left;verticalAlign=top;strokeColor=default;" parent="edge10" vertex="1" connectable="0">
          <mxGeometry x="-1534" y="4242" as="geometry" />
        </mxCell>
        <mxCell id="edge15" value="" style="html=1;rounded=1;edgeStyle=orthogonalEdgeStyle;dashed=0;startArrow=diamondThinstartSize=12;endArrow=openThin;endSize=12;strokeColor=#595959;exitX=0.500;exitY=0.000;exitDx=0;exitDy=0;entryX=0.500;entryY=0.000;entryDx=0;entryDy=0;" parent="1" source="node14" target="node3" edge="1">
          <mxGeometry width="50" height="50" relative="1" as="geometry">
            <Array as="points">
              <mxPoint x="-1414" y="5588" />
              <mxPoint x="-1694" y="5588" />
              <mxPoint x="-1694" y="5188" />
              <mxPoint x="-1534" y="5188" />
            </Array>
          </mxGeometry>
        </mxCell>
        <mxCell id="label90" value="1" style="edgeLabel;resizable=0;html=1;align=left;verticalAlign=top;strokeColor=default;" parent="edge15" vertex="1" connectable="0">
          <mxGeometry x="-1706" y="5512" as="geometry" />
        </mxCell>
        <mxCell id="label94" value="*" style="edgeLabel;resizable=0;html=1;align=left;verticalAlign=top;strokeColor=default;" parent="edge15" vertex="1" connectable="0">
          <mxGeometry x="-1704" y="5446" as="geometry" />
        </mxCell>
        <mxCell id="label95" value="quizzes" style="edgeLabel;resizable=0;html=1;align=left;verticalAlign=top;strokeColor=default;" parent="edge15" vertex="1" connectable="0">
          <mxGeometry x="-1694" y="5512" as="geometry" />
        </mxCell>
        <mxCell id="edge12" value="" style="html=1;rounded=1;edgeStyle=orthogonalEdgeStyle;dashed=0;startArrow=diamondThinstartSize=12;endArrow=openThin;endSize=12;strokeColor=#595959;exitX=0.500;exitY=0.000;exitDx=0;exitDy=0;entryX=0.500;entryY=1.000;entryDx=0;entryDy=0;" parent="1" source="node21" target="node16" edge="1">
          <mxGeometry width="50" height="50" relative="1" as="geometry">
            <Array as="points" />
          </mxGeometry>
        </mxCell>
        <mxCell id="label72" value="1" style="edgeLabel;resizable=0;html=1;align=left;verticalAlign=top;strokeColor=default;" parent="edge12" vertex="1" connectable="0">
          <mxGeometry x="-2266" y="4616" as="geometry" />
        </mxCell>
        <mxCell id="label76" value="1" style="edgeLabel;resizable=0;html=1;align=left;verticalAlign=top;strokeColor=default;" parent="edge12" vertex="1" connectable="0">
          <mxGeometry x="-2266" y="4518" as="geometry" />
        </mxCell>
        <mxCell id="label77" value="instructor" style="edgeLabel;resizable=0;html=1;align=left;verticalAlign=top;strokeColor=default;" parent="edge12" vertex="1" connectable="0">
          <mxGeometry x="-2254" y="4518" as="geometry" />
        </mxCell>
        <mxCell id="edge6" value="" style="html=1;rounded=1;edgeStyle=orthogonalEdgeStyle;dashed=0;startArrow=diamondThinstartSize=12;endArrow=openThin;endSize=12;strokeColor=#595959;exitX=0.500;exitY=0.000;exitDx=0;exitDy=0;entryX=0.500;entryY=1.000;entryDx=0;entryDy=0;" parent="1" source="node21" target="node6" edge="1">
          <mxGeometry width="50" height="50" relative="1" as="geometry">
            <Array as="points">
              <mxPoint x="-2254" y="4648" />
              <mxPoint x="-1914" y="4648" />
            </Array>
          </mxGeometry>
        </mxCell>
        <mxCell id="label36" value="1" style="edgeLabel;resizable=0;html=1;align=left;verticalAlign=top;strokeColor=default;" parent="edge6" vertex="1" connectable="0">
          <mxGeometry x="-2158" y="4630" as="geometry" />
        </mxCell>
        <mxCell id="label40" value="*" style="edgeLabel;resizable=0;html=1;align=left;verticalAlign=top;strokeColor=default;" parent="edge6" vertex="1" connectable="0">
          <mxGeometry x="-1924" y="4598" as="geometry" />
        </mxCell>
        <mxCell id="label41" value="lessons" style="edgeLabel;resizable=0;html=1;align=left;verticalAlign=top;strokeColor=default;" parent="edge6" vertex="1" connectable="0">
          <mxGeometry x="-1914" y="4598" as="geometry" />
        </mxCell>
        <mxCell id="edge17" value="" style="html=1;rounded=1;edgeStyle=orthogonalEdgeStyle;dashed=0;startArrow=diamondThinstartSize=12;endArrow=openThin;endSize=12;strokeColor=#595959;exitX=0.500;exitY=0.000;exitDx=0;exitDy=0;entryX=0.500;entryY=0.000;entryDx=0;entryDy=0;" parent="1" source="node9" target="node11" edge="1">
          <mxGeometry width="50" height="50" relative="1" as="geometry">
            <Array as="points">
              <mxPoint x="-1813" y="6330" />
              <mxPoint x="-1774" y="6330" />
              <mxPoint x="-1774" y="5668" />
              <mxPoint x="-2014" y="5668" />
            </Array>
          </mxGeometry>
        </mxCell>
        <mxCell id="label102" value="1" style="edgeLabel;resizable=0;html=1;align=left;verticalAlign=top;strokeColor=default;" parent="edge17" vertex="1" connectable="0">
          <mxGeometry x="-1786" y="6324" as="geometry" />
        </mxCell>
        <mxCell id="label106" value="1" style="edgeLabel;resizable=0;html=1;align=left;verticalAlign=top;strokeColor=default;" parent="edge17" vertex="1" connectable="0">
          <mxGeometry x="-1786" y="5795" as="geometry" />
        </mxCell>
        <mxCell id="label107" value="courseService" style="edgeLabel;resizable=0;html=1;align=left;verticalAlign=top;strokeColor=default;" parent="edge17" vertex="1" connectable="0">
          <mxGeometry x="-1774" y="5795" as="geometry" />
        </mxCell>
        <mxCell id="edge20" value="" style="html=1;rounded=1;edgeStyle=orthogonalEdgeStyle;dashed=0;startArrow=diamondThinstartSize=12;endArrow=openThin;endSize=12;strokeColor=#595959;exitX=0.500;exitY=0.000;exitDx=0;exitDy=0;entryX=0.500;entryY=0.000;entryDx=0;entryDy=0;" parent="1" source="node11" target="node21" edge="1">
          <mxGeometry width="50" height="50" relative="1" as="geometry">
            <Array as="points">
              <mxPoint x="-2014" y="5648" />
              <mxPoint x="-2094" y="5648" />
              <mxPoint x="-2094" y="4668" />
              <mxPoint x="-2254" y="4668" />
            </Array>
          </mxGeometry>
        </mxCell>
        <mxCell id="label120" value="1" style="edgeLabel;resizable=0;html=1;align=left;verticalAlign=top;strokeColor=default;" parent="edge20" vertex="1" connectable="0">
          <mxGeometry x="-2073" y="5630" as="geometry" />
        </mxCell>
        <mxCell id="label124" value="*" style="edgeLabel;resizable=0;html=1;align=left;verticalAlign=top;strokeColor=default;" parent="edge20" vertex="1" connectable="0">
          <mxGeometry x="-2104" y="4986" as="geometry" />
        </mxCell>
        <mxCell id="label125" value="courses" style="edgeLabel;resizable=0;html=1;align=left;verticalAlign=top;strokeColor=default;" parent="edge20" vertex="1" connectable="0">
          <mxGeometry x="-2094" y="4986" as="geometry" />
        </mxCell>
        <mxCell id="edge13" value="" style="html=1;rounded=1;edgeStyle=orthogonalEdgeStyle;dashed=0;startArrow=diamondThinstartSize=12;endArrow=openThin;endSize=12;strokeColor=#595959;exitX=0.500;exitY=0.000;exitDx=0;exitDy=0;entryX=0.500;entryY=1.000;entryDx=0;entryDy=0;" parent="1" source="node11" target="node1" edge="1">
          <mxGeometry width="50" height="50" relative="1" as="geometry">
            <Array as="points">
              <mxPoint x="-2014" y="5648" />
              <mxPoint x="-2094" y="5648" />
              <mxPoint x="-2094" y="5468" />
              <mxPoint x="-2454" y="5468" />
            </Array>
          </mxGeometry>
        </mxCell>
        <mxCell id="label78" value="1" style="edgeLabel;resizable=0;html=1;align=left;verticalAlign=top;strokeColor=default;" parent="edge13" vertex="1" connectable="0">
          <mxGeometry x="-2060" y="5630" as="geometry" />
        </mxCell>
        <mxCell id="label82" value="1" style="edgeLabel;resizable=0;html=1;align=left;verticalAlign=top;strokeColor=default;" parent="edge13" vertex="1" connectable="0">
          <mxGeometry x="-2280" y="5450" as="geometry" />
        </mxCell>
        <mxCell id="label83" value="notificationService" style="edgeLabel;resizable=0;html=1;align=left;verticalAlign=top;strokeColor=default;" parent="edge13" vertex="1" connectable="0">
          <mxGeometry x="-2327" y="5468" as="geometry" />
        </mxCell>
        <mxCell id="edge3" value="" style="html=1;rounded=1;edgeStyle=orthogonalEdgeStyle;dashed=0;startArrow=none;endArrow=block;endSize=12;strokeColor=#000082;exitX=0.500;exitY=0.000;exitDx=0;exitDy=0;entryX=0.500;entryY=1.000;entryDx=0;entryDy=0;" parent="1" source="node16" target="node12" edge="1">
          <mxGeometry width="50" height="50" relative="1" as="geometry">
            <Array as="points">
              <mxPoint x="-2254" y="3968" />
              <mxPoint x="-2074" y="3968" />
            </Array>
          </mxGeometry>
        </mxCell>
        <mxCell id="edge5" value="" style="html=1;rounded=1;edgeStyle=orthogonalEdgeStyle;dashed=0;startArrow=none;endArrow=block;endSize=12;strokeColor=#000082;exitX=0.500;exitY=0.000;exitDx=0;exitDy=0;entryX=0.500;entryY=1.000;entryDx=0;entryDy=0;" parent="1" source="node15" target="node10" edge="1">
          <mxGeometry width="50" height="50" relative="1" as="geometry">
            <Array as="points">
              <mxPoint x="-1270" y="7050" />
              <mxPoint x="-1270" y="6708" />
              <mxPoint x="-1214" y="6708" />
            </Array>
          </mxGeometry>
        </mxCell>
        <mxCell id="edge21" value="" style="html=1;rounded=1;edgeStyle=orthogonalEdgeStyle;dashed=0;startArrow=diamondThinstartSize=12;endArrow=openThin;endSize=12;strokeColor=#595959;exitX=0.500;exitY=0.000;exitDx=0;exitDy=0;entryX=0.500;entryY=1.000;entryDx=0;entryDy=0;" parent="1" source="node8" target="node1" edge="1">
          <mxGeometry width="50" height="50" relative="1" as="geometry">
            <Array as="points" />
          </mxGeometry>
        </mxCell>
        <mxCell id="label126" value="1" style="edgeLabel;resizable=0;html=1;align=left;verticalAlign=top;strokeColor=default;" parent="edge21" vertex="1" connectable="0">
          <mxGeometry x="-2466" y="5785" as="geometry" />
        </mxCell>
        <mxCell id="label130" value="1" style="edgeLabel;resizable=0;html=1;align=left;verticalAlign=top;strokeColor=default;" parent="edge21" vertex="1" connectable="0">
          <mxGeometry x="-2466" y="5585" as="geometry" />
        </mxCell>
        <mxCell id="label131" value="notificationService" style="edgeLabel;resizable=0;html=1;align=left;verticalAlign=top;strokeColor=default;" parent="edge21" vertex="1" connectable="0">
          <mxGeometry x="-2454" y="5512" as="geometry" />
        </mxCell>
        <mxCell id="edge7" value="" style="html=1;rounded=1;edgeStyle=orthogonalEdgeStyle;dashed=0;startArrow=diamondThinstartSize=12;endArrow=openThin;endSize=12;strokeColor=#595959;exitX=0.500;exitY=1.000;exitDx=0;exitDy=0;entryX=0.500;entryY=0.000;entryDx=0;entryDy=0;" parent="1" source="node1" target="node10" edge="1">
          <mxGeometry width="50" height="50" relative="1" as="geometry">
            <Array as="points">
              <mxPoint x="-2454" y="5788" />
              <mxPoint x="-2654" y="5788" />
              <mxPoint x="-2654" y="6308" />
              <mxPoint x="-1214" y="6308" />
            </Array>
          </mxGeometry>
        </mxCell>
        <mxCell id="label42" value="1" style="edgeLabel;resizable=0;html=1;align=left;verticalAlign=top;strokeColor=default;" parent="edge7" vertex="1" connectable="0">
          <mxGeometry x="-2466" y="5496" as="geometry" />
        </mxCell>
        <mxCell id="label46" value="1" style="edgeLabel;resizable=0;html=1;align=left;verticalAlign=top;strokeColor=default;" parent="edge7" vertex="1" connectable="0">
          <mxGeometry x="-1460" y="6290" as="geometry" />
        </mxCell>
        <mxCell id="label47" value="users" style="edgeLabel;resizable=0;html=1;align=left;verticalAlign=top;strokeColor=default;" parent="edge7" vertex="1" connectable="0">
          <mxGeometry x="-1711" y="6308" as="geometry" />
        </mxCell>
        <mxCell id="edge19" value="" style="html=1;rounded=1;edgeStyle=orthogonalEdgeStyle;dashed=0;startArrow=diamondThinstartSize=12;endArrow=openThin;endSize=12;strokeColor=#595959;exitX=0.500;exitY=0.000;exitDx=0;exitDy=0;entryX=0.500;entryY=1.000;entryDx=0;entryDy=0;" parent="1" source="node3" target="node0" edge="1">
          <mxGeometry width="50" height="50" relative="1" as="geometry">
            <Array as="points" />
          </mxGeometry>
        </mxCell>
        <mxCell id="label114" value="1" style="edgeLabel;resizable=0;html=1;align=left;verticalAlign=top;strokeColor=default;" parent="edge19" vertex="1" connectable="0">
          <mxGeometry x="-1546" y="5204" as="geometry" />
        </mxCell>
        <mxCell id="label118" value="*" style="edgeLabel;resizable=0;html=1;align=left;verticalAlign=top;strokeColor=default;" parent="edge19" vertex="1" connectable="0">
          <mxGeometry x="-1544" y="4260" as="geometry" />
        </mxCell>
        <mxCell id="label119" value="questions" style="edgeLabel;resizable=0;html=1;align=left;verticalAlign=top;strokeColor=default;" parent="edge19" vertex="1" connectable="0">
          <mxGeometry x="-1534" y="4260" as="geometry" />
        </mxCell>
        <mxCell id="edge2" value="" style="html=1;rounded=1;edgeStyle=orthogonalEdgeStyle;dashed=0;startArrow=none;endArrow=block;endSize=12;strokeColor=#000082;exitX=0.500;exitY=0.000;exitDx=0;exitDy=0;entryX=0.500;entryY=1.000;entryDx=0;entryDy=0;" parent="1" source="node19" target="node12" edge="1">
          <mxGeometry width="50" height="50" relative="1" as="geometry">
            <Array as="points" />
          </mxGeometry>
        </mxCell>
        <mxCell id="edge0" value="" style="html=1;rounded=1;edgeStyle=orthogonalEdgeStyle;dashed=0;startArrow=none;endArrow=block;endSize=12;strokeColor=#000082;exitX=0.500;exitY=0.000;exitDx=0;exitDy=0;entryX=0.500;entryY=1.000;entryDx=0;entryDy=0;" parent="1" source="node18" target="node10" edge="1">
          <mxGeometry width="50" height="50" relative="1" as="geometry">
            <Array as="points">
              <mxPoint x="-894" y="6708" />
              <mxPoint x="-1214" y="6708" />
            </Array>
          </mxGeometry>
        </mxCell>
        <mxCell id="edge22" value="" style="html=1;rounded=1;edgeStyle=orthogonalEdgeStyle;dashed=0;startArrow=diamondThinstartSize=12;endArrow=openThin;endSize=12;strokeColor=#595959;exitX=0.500;exitY=0.000;exitDx=0;exitDy=0;entryX=0.5;entryY=0;entryDx=0;entryDy=0;" parent="1" source="node12" target="node4" edge="1">
          <mxGeometry width="50" height="50" relative="1" as="geometry">
            <Array as="points" />
          </mxGeometry>
        </mxCell>
        <mxCell id="label132" value="1" style="edgeLabel;resizable=0;html=1;align=left;verticalAlign=top;strokeColor=default;" parent="edge22" vertex="1" connectable="0">
          <mxGeometry x="-2086" y="3365" as="geometry" />
        </mxCell>
        <mxCell id="label136" value="*" style="edgeLabel;resizable=0;html=1;align=left;verticalAlign=top;strokeColor=default;" parent="edge22" vertex="1" connectable="0">
          <mxGeometry x="-2084" y="3330" as="geometry" />
        </mxCell>
        <mxCell id="label137" value="notifications" style="edgeLabel;resizable=0;html=1;align=left;verticalAlign=top;strokeColor=default;" parent="edge22" vertex="1" connectable="0">
          <mxGeometry x="-2074" y="3330" as="geometry" />
        </mxCell>
        <mxCell id="edge16" value="" style="html=1;rounded=1;edgeStyle=orthogonalEdgeStyle;dashed=0;startArrow=diamondThinstartSize=12;endArrow=openThin;endSize=12;strokeColor=#595959;exitX=0.500;exitY=0.000;exitDx=0;exitDy=0;entryX=0.500;entryY=0.000;entryDx=0;entryDy=0;" parent="1" source="node5" target="node10" edge="1">
          <mxGeometry width="50" height="50" relative="1" as="geometry">
            <Array as="points">
              <mxPoint x="-2080" y="6780" />
              <mxPoint x="-2080" y="6688" />
              <mxPoint x="-1514" y="6688" />
              <mxPoint x="-1514" y="6328" />
              <mxPoint x="-1214" y="6328" />
            </Array>
          </mxGeometry>
        </mxCell>
        <mxCell id="label96" value="1" style="edgeLabel;resizable=0;html=1;align=left;verticalAlign=top;strokeColor=default;" parent="edge16" vertex="1" connectable="0">
          <mxGeometry x="-1866" y="7000" as="geometry" />
        </mxCell>
        <mxCell id="label100" value="1" style="edgeLabel;resizable=0;html=1;align=left;verticalAlign=top;strokeColor=default;" parent="edge16" vertex="1" connectable="0">
          <mxGeometry x="-1526" y="6619" as="geometry" />
        </mxCell>
        <mxCell id="label101" value="userService" style="edgeLabel;resizable=0;html=1;align=left;verticalAlign=top;strokeColor=default;" parent="edge16" vertex="1" connectable="0">
          <mxGeometry x="-1514" y="6439" as="geometry" />
        </mxCell>
        <mxCell id="edge11" value="" style="html=1;rounded=1;edgeStyle=orthogonalEdgeStyle;dashed=0;startArrow=diamondThinstartSize=12;endArrow=openThin;endSize=12;strokeColor=#595959;exitX=0.500;exitY=0.000;exitDx=0;exitDy=0;entryX=0.500;entryY=0.000;entryDx=0;entryDy=0;" parent="1" source="node10" target="node14" edge="1">
          <mxGeometry width="50" height="50" relative="1" as="geometry">
            <Array as="points">
              <mxPoint x="-1214" y="5628" />
              <mxPoint x="-1414" y="5628" />
            </Array>
          </mxGeometry>
        </mxCell>
        <mxCell id="label66" value="1" style="edgeLabel;resizable=0;html=1;align=left;verticalAlign=top;strokeColor=default;" parent="edge11" vertex="1" connectable="0">
          <mxGeometry x="-1226" y="6131" as="geometry" />
        </mxCell>
        <mxCell id="label70" value="1" style="edgeLabel;resizable=0;html=1;align=left;verticalAlign=top;strokeColor=default;" parent="edge11" vertex="1" connectable="0">
          <mxGeometry x="-1226" y="5765" as="geometry" />
        </mxCell>
        <mxCell id="label71" value="assessmentService" style="edgeLabel;resizable=0;html=1;align=left;verticalAlign=top;strokeColor=default;" parent="edge11" vertex="1" connectable="0">
          <mxGeometry x="-1374" y="5633" as="geometry" />
        </mxCell>
        <mxCell id="edge18" value="" style="html=1;rounded=1;edgeStyle=orthogonalEdgeStyle;dashed=0;startArrow=diamondThinstartSize=12;endArrow=openThin;endSize=12;strokeColor=#595959;exitX=0.500;exitY=0.000;exitDx=0;exitDy=0;entryX=0.500;entryY=0.000;entryDx=0;entryDy=0;" parent="1" source="node10" target="node11" edge="1">
          <mxGeometry width="50" height="50" relative="1" as="geometry">
            <Array as="points">
              <mxPoint x="-1214" y="6128" />
              <mxPoint x="-1774" y="6128" />
              <mxPoint x="-1774" y="5668" />
              <mxPoint x="-2014" y="5668" />
            </Array>
          </mxGeometry>
        </mxCell>
        <mxCell id="label108" value="1" style="edgeLabel;resizable=0;html=1;align=left;verticalAlign=top;strokeColor=default;" parent="edge18" vertex="1" connectable="0">
          <mxGeometry x="-1226" y="6158" as="geometry" />
        </mxCell>
        <mxCell id="label112" value="1" style="edgeLabel;resizable=0;html=1;align=left;verticalAlign=top;strokeColor=default;" parent="edge18" vertex="1" connectable="0">
          <mxGeometry x="-1940" y="5650" as="geometry" />
        </mxCell>
        <mxCell id="label113" value="courseService" style="edgeLabel;resizable=0;html=1;align=left;verticalAlign=top;strokeColor=default;" parent="edge18" vertex="1" connectable="0">
          <mxGeometry x="-1774" y="5966" as="geometry" />
        </mxCell>
        <mxCell id="edge14" value="" style="html=1;rounded=1;edgeStyle=orthogonalEdgeStyle;dashed=0;startArrow=diamondThinstartSize=12;endArrow=openThin;endSize=12;strokeColor=#595959;exitX=0.500;exitY=0.000;exitDx=0;exitDy=0;entryX=0.500;entryY=1.000;entryDx=0;entryDy=0;" parent="1" source="node10" target="node1" edge="1">
          <mxGeometry width="50" height="50" relative="1" as="geometry">
            <Array as="points">
              <mxPoint x="-1214" y="6108" />
              <mxPoint x="-2254" y="6108" />
              <mxPoint x="-2254" y="5768" />
              <mxPoint x="-2454" y="5768" />
            </Array>
          </mxGeometry>
        </mxCell>
        <mxCell id="label84" value="1" style="edgeLabel;resizable=0;html=1;align=left;verticalAlign=top;strokeColor=default;" parent="edge14" vertex="1" connectable="0">
          <mxGeometry x="-1567" y="6090" as="geometry" />
        </mxCell>
        <mxCell id="label88" value="1" style="edgeLabel;resizable=0;html=1;align=left;verticalAlign=top;strokeColor=default;" parent="edge14" vertex="1" connectable="0">
          <mxGeometry x="-2293" y="5750" as="geometry" />
        </mxCell>
        <mxCell id="label89" value="notificationService" style="edgeLabel;resizable=0;html=1;align=left;verticalAlign=top;strokeColor=default;" parent="edge14" vertex="1" connectable="0">
          <mxGeometry x="-2454" y="5492" as="geometry" />
        </mxCell>
        <mxCell id="edge23" value="" style="html=1;rounded=1;edgeStyle=orthogonalEdgeStyle;dashed=0;startArrow=diamondThinstartSize=12;endArrow=openThin;endSize=12;strokeColor=#595959;exitX=0.500;exitY=0.000;exitDx=0;exitDy=0;entryX=0.500;entryY=0.000;entryDx=0;entryDy=0;" parent="1" source="node10" target="node12" edge="1">
          <mxGeometry width="50" height="50" relative="1" as="geometry">
            <Array as="points">
              <mxPoint x="-1214" y="6108" />
              <mxPoint x="-1174" y="6108" />
              <mxPoint x="-1174" y="3388" />
              <mxPoint x="-2074" y="3388" />
            </Array>
          </mxGeometry>
        </mxCell>
        <mxCell id="label138" value="1" style="edgeLabel;resizable=0;html=1;align=left;verticalAlign=top;strokeColor=default;" parent="edge23" vertex="1" connectable="0">
          <mxGeometry x="-1200" y="6090" as="geometry" />
        </mxCell>
        <mxCell id="label142" value="*" style="edgeLabel;resizable=0;html=1;align=left;verticalAlign=top;strokeColor=default;" parent="edge23" vertex="1" connectable="0">
          <mxGeometry x="-1929" y="3370" as="geometry" />
        </mxCell>
        <mxCell id="label143" value="userStore" style="edgeLabel;resizable=0;html=1;align=left;verticalAlign=top;strokeColor=default;" parent="edge23" vertex="1" connectable="0">
          <mxGeometry x="-1953" y="3388" as="geometry" />
        </mxCell>
      </root>
    </mxGraphModel>
  </diagram>
</mxfile>
